<svg id="visual" viewBox="0 0 1440 800" width="1440" height="800" xmlns="http://www.w3.org/2000/svg" xmlns:xlink="http://www.w3.org/1999/xlink" version="1.1"><g transform="translate(-25.89901516958011 33.58248324697399)"><path d="M179.3 -348.8C247.3 -271.3 327.6 -253.4 412.4 -205.2C497.3 -157 586.6 -78.5 556.5 -17.4C526.4 43.8 376.9 87.5 304 156.4C231.1 225.2 234.8 319.1 196.9 393.3C159 467.4 79.5 521.7 10.8 502.9C-57.8 484.2 -115.7 392.3 -190.7 339.7C-265.8 287 -358.1 273.5 -424.3 223.4C-490.6 173.3 -530.8 86.7 -500.3 17.6C-469.9 -51.5 -368.7 -103 -307.2 -161.3C-245.7 -219.6 -223.9 -284.7 -179.3 -375.7C-134.7 -466.6 -67.3 -583.3 -5.8 -573.2C55.7 -563.1 111.3 -426.2 179.3 -348.8" fill="#faf7f8"></path></g></svg>