<svg id="visual" viewBox="0 0 1440 800" width="1440" height="800" xmlns="http://www.w3.org/2000/svg" xmlns:xlink="http://www.w3.org/1999/xlink" version="1.1"><g transform="translate(1352.2049541482347 739.4522640569845)"><path d="M401.2 -489.8C575.6 -425.6 810.9 -382.8 843.7 -275.6C876.6 -168.4 707 3.1 632.2 196.9C557.5 390.7 577.6 606.7 488.1 688.6C398.5 770.5 199.3 718.3 51.5 647.3C-96.2 576.4 -192.4 486.8 -303.4 411.9C-414.3 336.9 -540 276.6 -611.4 171.6C-682.9 66.5 -700 -83.2 -616 -156.4C-531.9 -229.5 -346.8 -226 -227.3 -308C-107.8 -390 -53.9 -557.5 29.8 -598.5C113.4 -639.5 226.9 -553.9 401.2 -489.8" fill="#faf7f8"></path></g></svg>