<svg id="visual" viewBox="0 0 375 1530" width="375" height="1530" xmlns="http://www.w3.org/2000/svg" xmlns:xlink="http://www.w3.org/1999/xlink" version="1.1"><g transform="translate(39.31041061441246 -18.16989268776578)"><path d="M138.5 -213.4C176.4 -191.1 201.9 -147.5 241.2 -99.1C280.6 -50.7 333.8 2.5 318.1 39C302.3 75.5 217.6 95.3 166 130C114.4 164.7 95.9 214.3 57.6 250.3C19.3 286.2 -39 308.6 -110.9 315.8C-182.9 323 -268.6 315 -327.6 270.6C-386.6 226.3 -419 145.6 -386.9 82.1C-354.9 18.6 -258.4 -27.7 -218.3 -93.2C-178.2 -158.7 -194.5 -243.4 -167.6 -270.7C-140.6 -298.1 -70.3 -268 -10 -252.5C50.3 -236.9 100.6 -235.8 138.5 -213.4" fill="#f9f9f9"></path></g></svg>